<svg width="19" height="18" viewBox="0 0 19 18" fill="none" xmlns="http://www.w3.org/2000/svg">
<path fill-rule="evenodd" clip-rule="evenodd" d="M8.60609 3C5.62367 3 3.23224 5.36488 3.23224 8.25C3.23224 11.1351 5.62367 13.5 8.60609 13.5C11.5885 13.5 13.9799 11.1351 13.9799 8.25C13.9799 5.36488 11.5885 3 8.60609 3ZM1.73224 8.25C1.73224 4.5077 4.82429 1.5 8.60609 1.5C12.3879 1.5 15.4799 4.5077 15.4799 8.25C15.4799 11.9923 12.3879 15 8.60609 15C4.82429 15 1.73224 11.9923 1.73224 8.25Z" fill="#AAAAAA"/>
<path fill-rule="evenodd" clip-rule="evenodd" d="M12.3953 11.9626C12.6852 11.6667 13.1601 11.6619 13.4559 11.9518L16.7858 15.2143C17.0817 15.5042 17.0865 15.979 16.7966 16.2749C16.5067 16.5707 16.0319 16.5756 15.736 16.2857L12.4062 13.0232C12.1103 12.7333 12.1055 12.2585 12.3953 11.9626Z" fill="#AAAAAA"/>
</svg>

